<svg width="584" height="95" viewBox="0 0 584 95" fill="none" xmlns="http://www.w3.org/2000/svg">
<g clip-path="url(#clip0_479_22)">
<path d="M12.1111 0C5.43108 0 0 5.3252 0 11.875V65.3125C0 71.8623 5.43108 77.1875 12.1111 77.1875H45.4167L43.3918 83.125H30.2778C26.9283 83.125 24.2222 85.7783 24.2222 89.0625C24.2222 92.3467 26.9283 95 30.2778 95H78.7222C82.0717 95 84.7778 92.3467 84.7778 89.0625C84.7778 85.7783 82.0717 83.125 78.7222 83.125H65.6082L63.5833 77.1875H96.8889C103.569 77.1875 109 71.8623 109 65.3125V11.875C109 5.3252 103.569 0 96.8889 0H12.1111ZM96.8889 11.875V65.3125H12.1111V11.875H96.8889Z" fill="#0F294F"/>
<g clip-path="url(#clip1_479_22)">
<path d="M72.9433 26.5033C74.0175 27.4575 74.0175 29.0072 72.9433 29.9614L50.9418 49.5043C49.8675 50.4585 48.1229 50.4585 47.0486 49.5043L36.0479 39.7329C34.9736 38.7786 34.9736 37.2289 36.0479 36.2747C37.1222 35.3205 38.8668 35.3205 39.9411 36.2747L48.9995 44.3132L69.0586 26.5033C70.1329 25.549 71.8776 25.549 72.9519 26.5033H72.9433Z" fill="#1D8DCD"/>
</g>
</g>
<path d="M135 47.5H230" stroke="#6BBCEB" stroke-width="12" stroke-linecap="round" stroke-dasharray="24 24"/>
<g clip-path="url(#clip2_479_22)">
<path d="M269.105 8.99213C267.391 13.6966 266.444 18.8371 266.444 24.2499C266.444 29.6628 267.391 34.8033 269.105 39.5078C270.182 42.4867 268.892 45.8652 266.216 47.0822C263.54 48.2992 260.504 46.846 259.411 43.8671C257.208 37.8003 256 31.1705 256 24.2499C256 17.3294 257.208 10.6996 259.411 4.63276C260.504 1.65385 263.54 0.21889 266.216 1.41772C268.892 2.61655 270.182 6.01323 269.105 8.99213ZM346.589 4.63276C348.792 10.6996 350 17.3294 350 24.2499C350 31.1705 348.792 37.8003 346.589 43.8671C345.512 46.846 342.46 48.281 339.784 47.0822C337.108 45.8833 335.818 42.4867 336.895 39.5078C338.609 34.8033 339.556 29.6628 339.556 24.2499C339.556 18.8371 338.609 13.6966 336.895 8.99213C335.818 6.01323 337.108 2.63471 339.784 1.41772C342.46 0.200726 345.496 1.65385 346.589 4.63276ZM313.444 24.2499C313.444 28.5548 311.339 32.3148 308.222 34.3128V88.1874C308.222 91.4025 305.889 93.9999 303 93.9999C300.111 93.9999 297.778 91.4025 297.778 88.1874V34.3128C294.661 32.2966 292.556 28.5548 292.556 24.2499C292.556 17.838 297.239 12.6249 303 12.6249C308.761 12.6249 313.444 17.838 313.444 24.2499ZM283.841 14.9499C282.731 17.7835 282.111 20.9259 282.111 24.2499C282.111 27.574 282.731 30.7164 283.841 33.5499C285 36.4925 283.792 39.9255 281.148 41.197C278.505 42.4685 275.42 41.1425 274.278 38.1999C272.597 33.9132 271.667 29.1906 271.667 24.2499C271.667 19.3093 272.597 14.5867 274.278 10.2999C275.436 7.35737 278.505 6.01323 281.148 7.30287C283.792 8.59252 285 12.0074 283.841 14.9499ZM331.722 10.2999C333.403 14.5867 334.333 19.3093 334.333 24.2499C334.333 29.1906 333.403 33.9132 331.722 38.1999C330.564 41.1425 327.495 42.4867 324.852 41.197C322.208 39.9074 321 36.4925 322.159 33.5499C323.269 30.7164 323.889 27.574 323.889 24.2499C323.889 20.9259 323.269 17.7835 322.159 14.9499C321 12.0074 322.208 8.57436 324.852 7.30287C327.495 6.03139 330.58 7.35737 331.722 10.2999Z" fill="#0F294F"/>
</g>
<path d="M376 47.5H471" stroke="#6BBCEB" stroke-width="12" stroke-linecap="round" stroke-dasharray="24 24"/>
<g clip-path="url(#clip3_479_22)">
<path d="M526.906 8.07812C526.906 5.81816 525.088 4 522.828 4C520.568 4 518.75 5.81816 518.75 8.07812V14.875C512.752 14.875 507.875 19.7518 507.875 25.75H501.078C498.818 25.75 497 27.5682 497 29.8281C497 32.0881 498.818 33.9062 501.078 33.9062H507.875V43.4219H501.078C498.818 43.4219 497 45.24 497 47.5C497 49.76 498.818 51.5781 501.078 51.5781H507.875V61.0938H501.078C498.818 61.0938 497 62.9119 497 65.1719C497 67.4318 498.818 69.25 501.078 69.25H507.875C507.875 75.2482 512.752 80.125 518.75 80.125V86.9219C518.75 89.1818 520.568 91 522.828 91C525.088 91 526.906 89.1818 526.906 86.9219V80.125H536.422V86.9219C536.422 89.1818 538.24 91 540.5 91C542.76 91 544.578 89.1818 544.578 86.9219V80.125H554.094V86.9219C554.094 89.1818 555.912 91 558.172 91C560.432 91 562.25 89.1818 562.25 86.9219V80.125C568.248 80.125 573.125 75.2482 573.125 69.25H579.922C582.182 69.25 584 67.4318 584 65.1719C584 62.9119 582.182 61.0938 579.922 61.0938H573.125V51.5781H579.922C582.182 51.5781 584 49.76 584 47.5C584 45.24 582.182 43.4219 579.922 43.4219H573.125V33.9062H579.922C582.182 33.9062 584 32.0881 584 29.8281C584 27.5682 582.182 25.75 579.922 25.75H573.125C573.125 19.7518 568.248 14.875 562.25 14.875V8.07812C562.25 5.81816 560.432 4 558.172 4C555.912 4 554.094 5.81816 554.094 8.07812V14.875H544.578V8.07812C544.578 5.81816 542.76 4 540.5 4C538.24 4 536.422 5.81816 536.422 8.07812V14.875H526.906V8.07812ZM524.188 25.75H556.812C559.82 25.75 562.25 28.1799 562.25 31.1875V63.8125C562.25 66.8201 559.82 69.25 556.812 69.25H524.188C521.18 69.25 518.75 66.8201 518.75 63.8125V31.1875C518.75 28.1799 521.18 25.75 524.188 25.75ZM556.812 31.1875H524.188V63.8125H556.812V31.1875Z" fill="#0F294F"/>
</g>
<defs>
<clipPath id="clip0_479_22">
<rect width="109" height="95" fill="white"/>
</clipPath>
<clipPath id="clip1_479_22">
<rect width="38.5025" height="39.0857" fill="white" transform="translate(35.249 18.457)"/>
</clipPath>
<clipPath id="clip2_479_22">
<rect width="94" height="93" fill="white" transform="translate(256 1)"/>
</clipPath>
<clipPath id="clip3_479_22">
<rect width="87" height="87" fill="white" transform="translate(497 4)"/>
</clipPath>
</defs>
</svg>
